<svg id="Layer_1" xmlns="http://www.w3.org/2000/svg" viewBox="0 0 232.165 66.146"><style>.st0{fill:#d26127}</style><path class="st0" d="M57.428.766L56.34 7.859H44.652l-.685 3.869h9.834l-1.048 6.852h-9.794l-1.814 11.164h-8.706L36.994.765h20.434zM56.383 18.661C56.383 9.028 61.179 0 72.182 0c7.174 0 10.801 4.353 10.801 11.205 0 10.116-4.715 19.306-15.759 19.306-6.529-.001-10.841-4.112-10.841-11.85zm17.371-7.053c0-2.741-1.169-3.95-2.902-3.95-4.514 0-5.28 7.577-5.28 11.003 0 2.862.927 4.312 2.862 4.312 4.876 0 5.32-8.867 5.32-11.365zM84.84 18.661C84.84 9.028 89.636 0 100.639 0c7.175 0 10.801 4.353 10.801 11.205 0 10.116-4.715 19.306-15.759 19.306-6.528-.001-10.841-4.112-10.841-11.85zm17.371-7.053c0-2.741-1.169-3.95-2.902-3.95-4.514 0-5.28 7.577-5.28 11.003 0 2.862.927 4.312 2.862 4.312 4.877 0 5.32-8.867 5.32-11.365zM113.702.766h23.82l-1.007 7.094h-7.578l-3.506 21.885h-8.747l3.507-21.885h-7.537l1.048-7.094zM135.669 29.744L140.224.765h11.205c5.764 0 8.504 2.579 8.504 6.408 0 3.345-1.894 5.32-4.151 7.053 2.337 1.29 3.909 3.185 3.909 5.885 0 6.892-5.884 9.391-12.414 9.633h-11.608zm10.641-12.091l-1.007 6.247h2.015c1.814 0 3.224-1.733 3.224-3.546 0-1.572-1.007-2.7-2.539-2.7h-1.693zm1.653-10.68l-.725 4.998h2.176c1.169-.968 1.733-1.935 1.733-3.103 0-1.209-.604-1.894-1.813-1.894h-1.371zM159.411 29.744L171.543.765h10.56l4.232 28.979h-8.827l-.685-5.603h-6.287l-2.137 5.603h-8.988zm12.978-11.365h3.99l-.483-11.124h-.161l-3.346 11.124zM192.785.766h8.706l-3.466 21.845h11.164l-1.089 7.134h-19.87L192.785.766zM215.761.766h8.706L221 22.61h11.165l-1.089 7.134h-19.87L215.761.766zM45.7 36.036l-4.555 28.979h-8.706l4.555-28.979H45.7zM73.671 36.036l-4.514 28.979H61.66l-5.038-15.598-.161.041-2.217 15.557H45.66l4.555-28.979h7.9l4.474 16.243.202-.081 2.459-16.162h8.421zM76.414 55.543c2.62 1.854 5.602 2.7 7.295 2.7 1.531 0 2.7-.523 2.7-1.813 0-1.653-1.854-2.338-4.07-3.305-2.942-1.29-6.529-2.902-6.529-8.101 0-6.046 4.917-9.753 11.285-9.753 4.192 0 7.497 1.209 10.277 3.385l-3.788 6.368c-2.016-1.491-4.676-2.459-6.287-2.459-.968 0-2.096.242-2.096 1.37 0 1.129 1.411 1.814 3.184 2.661 3.224 1.531 7.094 3.345 7.094 8.705 0 6.61-5.522 10.479-12.333 10.479-5.038 0-8.666-1.935-10.036-2.983l3.304-7.254zM110.676 36.036l-4.555 28.979h-8.706l4.555-28.979h8.706zM115.191 36.036h10.439c6.368 0 11.245 2.7 11.245 10.922 0 12.333-7.335 18.056-14.51 18.056h-11.729l4.555-28.978zm5.28 22.369h1.089c3.587 0 6.086-4.07 6.086-10.721 0-4.07-1.572-4.877-3.789-4.877h-.968l-2.418 15.598zM142.157 36.036h19.87l-1.088 7.094h-11.165l-.645 3.909h9.714l-1.048 6.772h-9.714l-.645 4.111h11.567l-1.088 7.094h-20.314l4.556-28.98zM181.819 55.624c.403 1.854.846 3.103 2.902 3.103.323 0 .646-.041 1.008-.081l-1.008 6.449c-.846.202-2.781.323-3.587.323-3.667 0-5.844-1.531-6.811-5.2l-1.531-5.925h-1.007l-1.652 10.721h-8.747l4.555-28.979h11.043c6.127 0 10.117 2.378 10.117 7.456 0 4.474-2.338 7.174-6.086 8.625l.804 3.508zm-7.294-7.94c1.974 0 3.264-1.007 3.264-2.821 0-1.652-1.007-2.257-2.66-2.257h-1.451l-.846 5.078h1.693zM24.005.76l-4.22 27.9-18.676.059L0 35.773h18.709l-4.594 30.373h8.707L32.712.76z"/></svg>