<svg xmlns="http://www.w3.org/2000/svg" viewBox="0 0 231.42 94.236"><path d="M80.275 65.376c-1.719-1.909-2.585-4.768-2.585-8.576V40.131H74.7c.121.216.245.43.358.654 1.361 2.701 2.036 5.865 2.036 9.494 0 5.623-1.477 10.022-4.441 13.197-2.964 3.176-7.1 4.758-12.396 4.758-3.312 0-6.234-.728-8.777-2.184-2.532-1.445-4.473-3.534-5.834-6.256a18.276 18.276 0 01-1.429-4.016v11.823h-9.432v-20.18c0-4.99-1.846-7.479-5.56-7.479-2.627 0-4.536.897-5.707 2.69-1.171 1.793-1.762 4.695-1.762 8.714v16.257h-9.421V15.351C4.514 23.913-.192 35.354.006 47.865c.413 26.019 21.84 46.777 47.859 46.364 18.17-.288 33.764-10.832 41.384-26.024-.249.006-.48.03-.735.03-3.776 0-6.519-.949-8.239-2.859z" fill-rule="evenodd" clip-rule="evenodd" fill="#ee3524"/><path d="M94.23 46.37a47.066 47.066 0 01-1.979 14.279c-.351.028-.699.053-1.025.053-1.234 0-2.226-.317-2.975-.96-.749-.633-1.129-1.625-1.129-2.964V40.131h6.584c.303 2.041.49 4.12.524 6.239zm-28.444-3.802c-1.108-1.709-2.933-2.563-5.465-2.563-2.511 0-4.325.854-5.433 2.553-1.118 1.698-1.667 4.262-1.667 7.701 0 3.418.559 6.003 1.677 7.754 1.129 1.751 2.954 2.627 5.486 2.627 2.511 0 4.315-.865 5.422-2.606 1.097-1.741 1.646-4.336 1.646-7.775 0-3.418-.548-5.982-1.666-7.691zM21.757 29.307c0 .759.013 2.559-.211 5.38l-.221 2.785h.496c2.099-3.376 5.433-5.064 10.011-5.064 4.051 0 7.131 1.087 9.231 3.27 2.015 2.096 3.057 5.077 3.139 8.922.68-3.006 1.949-5.508 3.819-7.498 2.954-3.133 7.089-4.695 12.427-4.695 3.313 0 6.235.718 8.777 2.163a14.228 14.228 0 013.961 3.331v-1.77l5.19-3.154 2.722-7.29h6.024v7.353h4.963C86.014 13.623 67.747-.333 46.37.006a46.884 46.884 0 00-24.613 7.406v21.895z" fill-rule="evenodd" clip-rule="evenodd" fill="#f47521"/><path d="M103.481 25.511h1.365v1.335c0 .675-.285.96-.96.96h-4.529c-.675 0-.96-.285-.96-.96v-8.009c0-.225-.12-.33-.33-.33h-.645v-1.29h1.515c.675 0 .96.285.96.96v8.009c0 .21.12.33.33.33h2.924c.21 0 .33-.12.33-.33v-.675zm10.708.675c0 .21-.12.33-.33.33h-3.09c-.21 0-.33-.12-.33-.33v-3.075h3.704v-1.29h-3.704v-3.314h3.014c.21 0 .33.105.33.33v.675h1.365v-1.335c0-.675-.285-.96-.96-.96h-6.224v1.29h.975v8.339c0 .675.285.96.96.96h4.709c.675 0 .96-.285.96-.96v-1.335h-1.38v.675zm12.898-8.969h-7.289c-.675 0-.9.225-.9.9v1.395h1.335v-.675c0-.225.12-.33.33-.33h2.13v9.299h1.5v-9.299h2.13c.21 0 .33.105.33.33v.675h1.335v-1.395c-.002-.675-.226-.9-.901-.9zm9.523 1.29h1.035v8.009h-1.035v1.29h3.494v-1.29h-1.035v-8.009h1.035v-1.29h-3.494v1.29zm15.403-1.29h-7.289c-.675 0-.9.225-.9.9v1.395h1.335v-.675c0-.225.12-.33.33-.33h2.13v9.299h1.5v-9.299h2.13c.21 0 .33.105.33.33v.675h1.335v-1.395c-.001-.675-.226-.9-.901-.9zm17.443 3.314c0 2.01-1.38 3.36-3.315 3.36h-2.189v3.914h-1.5v-9.299h-.975v-1.29h4.664c1.935.001 3.315 1.306 3.315 3.315zm-1.545 0c0-1.275-.765-2.025-1.995-2.025h-1.965v4.095h1.95c1.245 0 2.01-.795 2.01-2.07zm11.368 5.655c0 .21-.12.33-.33.33h-2.924c-.21 0-.33-.12-.33-.33v-8.009c0-.675-.285-.96-.96-.96h-1.515v1.29h.645c.21 0 .33.105.33.33v8.009c0 .675.285.96.96.96h4.529c.675 0 .96-.285.96-.96v-1.335h-1.365v.675zm14.113.33h.225v1.29h-.84c-.75 0-.99-.18-1.23-.87l-.795-2.175h-3.899l-.795 2.175c-.255.69-.495.87-1.245.87h-.825v-1.29h.21c.27 0 .405-.06.495-.33l3.315-8.969h1.575l3.315 8.969c.089.27.239.33.494.33zm-3.015-3.015l-1.155-3.225c-.195-.555-.42-1.485-.42-1.485h-.03s-.21.93-.405 1.485l-1.155 3.225h3.165zm11.864-5.474l-1.59 2.67c-.36.585-.645 1.185-.645 1.185h-.03s-.3-.6-.645-1.185l-1.605-2.67c-.42-.705-.705-.81-1.425-.81h-.69v1.29h.3c.315 0 .45.06.645.375l2.685 4.304v4.619h1.5v-4.619l2.67-4.304c.195-.315.345-.375.66-.375h.285v-1.29h-.69c-.705 0-1.005.105-1.425.81zm8.143 6.869l.09-7.679h-1.5l.105 7.679h1.305zm-1.395 2.909h1.485V26.35h-1.485v1.455z"/><path d="M179.666 34.819c-2.542-1.445-5.465-2.162-8.777-2.162-5.338 0-9.473 1.561-12.427 4.694-1.97 2.097-3.262 4.769-3.912 7.993-.512-3.196-1.524-5.857-3.065-7.961-2.311-3.154-5.507-4.726-9.579-4.726-4.336 0-7.595 1.709-9.811 5.127h-.432l-1.329-4.494h-7.659v56.951c5.587-.389 8.979-2.581 9.421-7.2V69.063c0-.454-.158-2.121-.485-5.001h.485c2.311 2.943 5.496 4.42 9.558 4.42 2.701 0 5.053-.707 7.047-2.131 2.004-1.424 3.544-3.492 4.62-6.214.555-1.39.963-2.911 1.233-4.554.339 1.6.85 3.087 1.535 4.458 1.361 2.722 3.302 4.811 5.834 6.256 2.542 1.456 5.465 2.184 8.777 2.184 5.296 0 9.431-1.582 12.396-4.758 2.964-3.175 4.441-7.575 4.441-13.197 0-3.629-.675-6.794-2.036-9.494-1.362-2.7-3.303-4.767-5.835-6.213zm-40.672 26.005c-2.395 0-4.135-.802-5.243-2.405-1.097-1.614-1.656-4.262-1.656-7.976V49.43c.042-3.302.602-5.665 1.678-7.1 1.066-1.424 2.775-2.142 5.095-2.142 2.237 0 3.861.855 4.906 2.553 1.044 1.698 1.561 4.241 1.561 7.638-.001 6.963-2.111 10.445-6.341 10.445zm37.254-2.543c-1.108 1.741-2.911 2.606-5.422 2.606-2.532 0-4.357-.876-5.486-2.627-1.118-1.751-1.678-4.336-1.678-7.754 0-3.439.549-6.003 1.667-7.701 1.108-1.698 2.922-2.553 5.433-2.553 2.532 0 4.357.854 5.465 2.563 1.118 1.709 1.667 4.273 1.667 7.691 0 3.439-.549 6.034-1.646 7.775zm-55.245-5.116c.591 1.245.886 2.722.886 4.431 0 3.545-1.224 6.245-3.692 8.102-2.458 1.857-6.14 2.785-11.045 2.785-2.511 0-4.652-.169-6.425-.506-1.772-.348-3.428-.844-4.979-1.509 0-9.638-1.51-7.611 5.918-5.718 2.194.559 4.125.833 5.792.833 3.429 0 5.138-.992 5.138-2.975 0-.738-.232-1.34-.686-1.804-.454-.464-1.234-.992-2.342-1.583-1.118-.58-2.595-1.266-4.452-2.057-2.658-1.108-4.61-2.142-5.855-3.091-1.245-.95-2.152-2.036-2.722-3.26-.57-1.234-.844-2.743-.844-4.536 0-3.059 1.182-5.433 3.566-7.11 2.374-1.677 5.75-2.511 10.117-2.511 4.167 0 8.207.907 12.143 2.711l-2.838 6.783c-1.73-.738-3.344-1.35-4.853-1.825a15.155 15.155 0 00-4.599-.707c-2.785 0-4.178.749-4.178 2.257 0 .844.453 1.582 1.35 2.194.897.622 2.859 1.54 5.886 2.753 2.69 1.097 4.674 2.121 5.929 3.07 1.255.952 2.183 2.039 2.785 3.273zm110.417 6.699V66.9c-2.352 1.055-5.232 1.582-8.65 1.582-3.777 0-6.52-.949-8.239-2.859-1.719-1.909-2.585-4.768-2.585-8.577V40.379l-1.304-.155-.013.155-.111 1.393c-.77-.2-1.688-.306-2.785-.306-3.007 0-5.349.77-7.026 2.321-1.677 1.54-2.521 3.703-2.521 6.488V67.85h-9.421V33.29h7.142l1.382 5.823h.464c1.076-1.93 2.521-3.492 4.346-4.684 1.814-1.181 3.798-1.772 5.939-1.772 1.276 0 2.342.095 3.186.274l-.097 1.209 1.504-.914 2.722-7.29h6.024v7.353h9.674v7.089h-9.674v16.647c0 1.34.38 2.332 1.129 2.965.749.644 1.74.96 2.975.96 1.656 0 3.628-.359 5.939-1.086z"/></svg>