<svg xmlns="http://www.w3.org/2000/svg" viewBox="0 0 90 90"><path d="M0 0h90v90H0V0z" fill="#f3f5f6"/><path d="M34.282 50.523c-.52-.577-.782-1.442-.782-2.594v-5.042h-.904c.037.065.074.13.108.198.412.817.616 1.774.616 2.872 0 1.701-.447 3.031-1.343 3.992-.897.961-2.148 1.439-3.75 1.439-1.002 0-1.886-.22-2.655-.661-.766-.437-1.353-1.069-1.765-1.892a5.502 5.502 0 01-.432-1.215v3.576h-2.853v-6.104c0-1.509-.558-2.262-1.682-2.262-.795 0-1.372.271-1.726.814s-.533 1.42-.533 2.636v4.917h-2.85V35.391a14.2 14.2 0 00-3.729 9.835c.125 7.87 6.606 14.149 14.476 14.024 5.496-.087 10.213-3.276 12.518-7.872-.075.002-.145.009-.222.009-1.142.001-1.972-.286-2.492-.864z" fill-rule="evenodd" clip-rule="evenodd" fill="#ee3524"/><path d="M38.503 44.774a14.21 14.21 0 01-.599 4.319c-.106.008-.211.016-.31.016-.373 0-.673-.096-.9-.29-.227-.191-.341-.492-.341-.897v-5.035h1.992c.091.617.147 1.246.158 1.887zm-8.604-1.15c-.335-.517-.887-.775-1.653-.775-.76 0-1.308.258-1.643.772-.338.514-.504 1.289-.504 2.329 0 1.034.169 1.816.507 2.345.341.53.894.795 1.659.795.76 0 1.305-.262 1.64-.788.332-.527.498-1.312.498-2.352 0-1.034-.166-1.809-.504-2.326zm-13.318-4.011c0 .23.004.774-.064 1.627l-.067.842h.15c.635-1.021 1.643-1.532 3.028-1.532 1.225 0 2.157.329 2.792.989.609.634.925 1.536.949 2.699.206-.909.59-1.666 1.155-2.268.894-.948 2.144-1.42 3.759-1.42 1.002 0 1.886.217 2.655.654a4.29 4.29 0 011.198 1.008v-.535l1.57-.954.823-2.205h1.822v2.224h1.501c-1.836-5.873-7.362-10.095-13.828-9.992a14.188 14.188 0 00-7.445 2.24v6.623z" fill-rule="evenodd" clip-rule="evenodd" fill="#f47521"/><path d="M41.301 38.464h.413v.404c0 .204-.086.29-.29.29h-1.37c-.204 0-.29-.086-.29-.29v-2.423c0-.068-.036-.1-.1-.1h-.195v-.39h.458c.204 0 .29.086.29.29v2.423c0 .064.036.1.1.1h.884c.064 0 .1-.036.1-.1v-.204zm3.239.205c0 .064-.036.1-.1.1h-.935c-.064 0-.1-.036-.1-.1v-.93h1.12v-.39h-1.12v-1.002h.912c.064 0 .1.032.1.1v.204h.413v-.404c0-.204-.086-.29-.29-.29h-1.883v.39h.295v2.522c0 .204.086.29.29.29h1.424c.204 0 .29-.086.29-.29v-.404h-.416v.204zm3.901-2.713h-2.205c-.204 0-.272.068-.272.272v.422h.404v-.204c0-.068.036-.1.1-.1h.644v2.813h.454v-2.813h.644c.064 0 .1.032.1.1v.204h.404v-.422c-.001-.204-.069-.272-.273-.272zm2.881.39h.313v2.423h-.313v.39h1.057v-.39h-.313v-2.423h.313v-.39h-1.057v.39zm4.659-.39h-2.205c-.204 0-.272.068-.272.272v.422h.404v-.204c0-.068.036-.1.1-.1h.644v2.813h.454v-2.813h.644c.064 0 .1.032.1.1v.204h.404v-.422c-.001-.204-.069-.272-.273-.272zm5.276 1.002c0 .608-.417 1.016-1.003 1.016h-.662v1.184h-.454v-2.813h-.295v-.39h1.411c.586.001 1.003.395 1.003 1.003zm-.467 0c0-.386-.231-.613-.603-.613h-.594v1.239h.59c.375 0 .607-.24.607-.626zm3.438 1.711c0 .064-.036.1-.1.1h-.884c-.064 0-.1-.036-.1-.1v-2.423c0-.204-.086-.29-.29-.29h-.458v.39h.195c.064 0 .1.032.1.1v2.423c0 .204.086.29.29.29h1.37c.204 0 .29-.086.29-.29v-.404h-.413v.204zm4.269.099h.068v.39h-.254c-.227 0-.299-.054-.372-.263l-.24-.658H66.52l-.24.658c-.077.209-.15.263-.377.263h-.25v-.39h.064c.082 0 .123-.018.15-.1l1.003-2.713h.476l1.003 2.713c.026.082.071.1.148.1zm-.912-.912l-.349-.976c-.059-.168-.127-.449-.127-.449H67.1s-.064.281-.123.449l-.349.976h.957zm3.589-1.655l-.481.808c-.109.177-.195.358-.195.358h-.009s-.091-.181-.195-.358l-.485-.808c-.127-.213-.213-.245-.431-.245h-.209v.39h.091c.095 0 .136.018.195.113l.812 1.302v1.397h.454v-1.397l.808-1.302c.059-.095.104-.113.2-.113h.086v-.39h-.209c-.214 0-.305.031-.432.245zm2.463 2.077l.027-2.323h-.454l.032 2.323h.395zm-.422.88h.449v-.44h-.449v.44z"/><path d="M64.345 41.28c-.769-.437-1.653-.654-2.655-.654-1.615 0-2.865.472-3.759 1.42-.596.634-.987 1.443-1.183 2.418-.155-.967-.461-1.772-.927-2.408-.699-.954-1.666-1.43-2.897-1.43-1.312 0-2.297.517-2.968 1.551h-.131l-.402-1.359h-2.317v17.227c1.69-.118 2.716-.781 2.85-2.178v-4.228c0-.137-.048-.642-.147-1.513h.147c.699.89 1.662 1.337 2.891 1.337.817 0 1.528-.214 2.132-.645.606-.431 1.072-1.056 1.397-1.88.168-.42.291-.881.373-1.377.103.484.257.934.464 1.348.412.823.999 1.455 1.765 1.892.769.44 1.653.661 2.655.661 1.602 0 2.853-.479 3.75-1.439.897-.96 1.343-2.291 1.343-3.992 0-1.098-.204-2.055-.616-2.872a4.377 4.377 0 00-1.765-1.879zm-12.302 7.866c-.724 0-1.251-.243-1.586-.727-.332-.488-.501-1.289-.501-2.413V45.7c.013-.999.182-1.714.508-2.148.322-.431.839-.648 1.541-.648.677 0 1.168.259 1.484.772.316.514.472 1.283.472 2.31 0 2.107-.639 3.16-1.918 3.16zm11.269-.769c-.335.527-.881.788-1.64.788-.766 0-1.318-.265-1.659-.795-.338-.53-.508-1.312-.508-2.345 0-1.04.166-1.816.504-2.329.335-.514.884-.772 1.643-.772.766 0 1.318.258 1.653.775.338.517.504 1.292.504 2.326 0 1.04-.166 1.825-.497 2.352zm-16.711-1.548c.179.377.268.823.268 1.34 0 1.072-.37 1.889-1.117 2.451-.743.562-1.857.842-3.341.842-.76 0-1.407-.051-1.943-.153a7.434 7.434 0 01-1.506-.456c0-2.915-.457-2.302 1.79-1.73.664.169 1.248.252 1.752.252 1.037 0 1.554-.3 1.554-.9a.748.748 0 00-.208-.546c-.137-.14-.373-.3-.708-.479a20.224 20.224 0 00-1.347-.622c-.804-.335-1.394-.648-1.771-.935a2.647 2.647 0 01-.823-.986c-.172-.373-.255-.83-.255-1.372 0-.925.358-1.643 1.079-2.151.718-.507 1.739-.76 3.06-.76 1.26 0 2.482.274 3.673.82l-.858 2.052a16.147 16.147 0 00-1.468-.552 4.574 4.574 0 00-1.391-.214c-.842 0-1.264.227-1.264.683 0 .255.137.479.408.664.271.188.865.466 1.78.833.814.332 1.414.642 1.793.929.38.288.661.617.843.99zM80 48.856v2.128c-.711.319-1.583.479-2.616.479-1.142 0-1.972-.287-2.492-.865-.52-.577-.782-1.442-.782-2.594v-5.041l-.394-.047-.004.047-.034.421a3.39 3.39 0 00-.842-.093c-.91 0-1.618.233-2.125.702-.507.466-.763 1.12-.763 1.962v5.316h-2.85V40.817h2.16l.418 1.761h.14a3.976 3.976 0 011.315-1.417 3.233 3.233 0 011.796-.536c.386 0 .708.029.964.083l-.029.366.455-.276.823-2.205h1.822v2.224h2.926v2.144h-2.926v5.035c0 .405.115.705.341.897.227.195.526.29.9.29.501.001 1.098-.108 1.797-.327z"/></svg>