<svg id="Layer_1" xmlns="http://www.w3.org/2000/svg" viewBox="0 0 90 90"><style>.st1{fill:#d26127}</style><path fill="#f3f5f6" d="M0 0h90v90H0z"/><g id="fi-logo" transform="translate(436 1185)"><g id="Group_1" transform="translate(9.781)"><path id="Path_1" class="st1" d="M-418.5-1149.8l-.3 2.1h-3.5l-.2 1.2h3l-.3 2.1h-3l-.5 3.4h-2.6l1.4-8.7h6z"/><path id="Path_2" class="st1" d="M-418.8-1144.4c0-2.9 1.4-5.6 4.8-5.6 2.2 0 3.3 1.3 3.3 3.4 0 3-1.4 5.8-4.8 5.8-2 0-3.3-1.2-3.3-3.6zm5.3-2.1c0-.8-.4-1.2-.9-1.2-1.4 0-1.6 2.3-1.6 3.3 0 .9.3 1.3.9 1.3 1.4 0 1.6-2.6 1.6-3.4z"/><path id="Path_3" class="st1" d="M-410.2-1144.4c0-2.9 1.4-5.6 4.8-5.6 2.2 0 3.3 1.3 3.3 3.4 0 3-1.4 5.8-4.8 5.8-2 0-3.3-1.2-3.3-3.6zm5.2-2.1c0-.8-.4-1.2-.9-1.2-1.4 0-1.6 2.3-1.6 3.3 0 .9.3 1.3.9 1.3 1.5 0 1.6-2.6 1.6-3.4z"/><path id="Path_4" class="st1" d="M-401.5-1149.8h7.2l-.3 2.1h-2.3l-1.1 6.6h-2.6l1.1-6.6h-2.3l.3-2.1z"/><path id="Path_5" class="st1" d="M-394.9-1141l1.4-8.7h3.4c1.7 0 2.6.8 2.6 1.9 0 .9-.5 1.7-1.3 2.1.7.3 1.2 1 1.2 1.8 0 2.1-1.8 2.8-3.7 2.9h-3.6zm3.2-3.7l-.3 1.9h.6c.6 0 1-.5 1-1.1 0-.4-.3-.8-.7-.8h-.6zm.5-3.2l-.2 1.5h.7c.3-.2.5-.6.5-.9 0-.3-.1-.5-.4-.6h-.6z"/><path id="Path_6" class="st1" d="M-387.7-1141l3.7-8.7h3.2l1.3 8.7h-2.7l-.2-1.7h-1.9l-.6 1.7h-2.8zm3.9-3.5h1.2l-.1-3.4-1.1 3.4z"/><path id="Path_7" class="st1" d="M-377.7-1149.8h2.6l-1 6.6h3.4l-.3 2.1h-6l1.3-8.7z"/><path id="Path_8" class="st1" d="M-370.7-1149.8h2.6l-1 6.6h3.4l-.3 2.1h-6l1.3-8.7z"/><path id="Path_9" class="st1" d="M-422-1139.1l-1.4 8.7h-2.6l1.4-8.7h2.6z"/><path id="Path_10" class="st1" d="M-413.6-1139.1l-1.4 8.7h-2.3l-1.5-4.7-.7 4.7h-2.6l1.4-8.7h2.4l1.3 4.9h.1l.7-4.9h2.6z"/><path id="Path_11" class="st1" d="M-412.7-1133.3c.6.5 1.4.8 2.2.8.5 0 .8-.2.8-.5 0-.5-.6-.7-1.2-1-.9-.4-2-.9-2-2.4 0-1.8 1.5-2.9 3.4-2.9 1.1 0 2.2.3 3.1 1l-1.1 1.9c-.6-.4-1.2-.7-1.9-.7-.3 0-.6.1-.6.4 0 .3.4.5 1 .8 1 .5 2.1 1 2.1 2.6 0 2-1.7 3.2-3.7 3.2-1.1 0-2.1-.3-3-.9l.9-2.3z"/><path id="Path_12" class="st1" d="M-402.4-1139.1l-1.4 8.7h-2.6l1.4-8.7h2.6z"/><path id="Path_13" class="st1" d="M-401-1139.1h3.1c1.9 0 3.4.8 3.4 3.3 0 3.7-2.2 5.4-4.4 5.4h-3.5l1.4-8.7zm1.5 6.7h.3c1.1 0 1.8-1.2 1.8-3.2 0-1.2-.5-1.5-1.1-1.5h-.3l-.7 4.7z"/><path id="Path_14" class="st1" d="M-392.9-1139.1h6l-.3 2.1h-3.4l-.2 1.2h2.9l-.3 2h-2.9l-.2 1.2h3.5l-.3 2.1h-6.1l1.3-8.6z"/><path id="Path_15" class="st1" d="M-381-1133.2c.1.6.3.9.9.9h.3l-.3 1.9c-.4.1-.7.1-1.1.1-1 .1-1.9-.6-2.1-1.6l-.5-1.8h-.3l-.5 3.2h-2.6l1.4-8.7h3.3c1.8 0 3 .7 3 2.2.1 1.2-.7 2.3-1.8 2.6l.3 1.2zm-2.2-2.4c.6 0 1-.3 1-.9 0-.5-.3-.7-.8-.7h-.4l-.3 1.5.5.1z"/></g><path id="Path_16" class="st1" d="M-418.8-1149.8l-1.3 8.4h-5.6l-.3 2.1h5.6l-1.4 9.2h2.6l3-19.7h-2.6z"/></g></svg>