<?xml version="1.0" encoding="utf-8"?>
<!-- Generator: Adobe Illustrator 24.0.1, SVG Export Plug-In . SVG Version: 6.00 Build 0)  -->
<svg version="1.1" id="Layer_1" xmlns="http://www.w3.org/2000/svg" xmlns:xlink="http://www.w3.org/1999/xlink" x="0px" y="0px"
	 viewBox="0 0 1170 658" style="enable-background:new 0 0 1170 658;" xml:space="preserve">
<style type="text/css">
	.st0{fill:#F3F3F3;}
	.st1{fill-rule:evenodd;clip-rule:evenodd;fill:#EE3524;}
	.st2{fill-rule:evenodd;clip-rule:evenodd;fill:#F47521;}
</style>
<g>
	<rect class="st0" width="1170" height="658"/>
</g>
<g id="logo">
	<path class="st1" d="M506.909,369.238c-3.788-4.207-5.697-10.508-5.697-18.9v-36.735h-6.589c0.267,0.476,0.54,0.948,0.789,1.441
		c2.999,5.952,4.487,12.925,4.487,20.923c0,12.392-3.255,22.086-9.787,29.083c-6.532,6.999-15.647,10.486-27.318,10.486
		c-7.299,0-13.738-1.604-19.343-4.813c-5.58-3.184-9.858-7.788-12.857-13.787c-1.371-2.739-2.409-5.697-3.149-8.85v26.055h-20.786
		v-44.472c0-10.997-4.068-16.482-12.253-16.482c-5.789,0-9.996,1.977-12.577,5.928s-3.883,10.347-3.883,19.204v35.827h-20.762
		V258.993c-17.236,18.869-27.607,44.082-27.171,71.654c0.91,57.34,48.131,103.086,105.471,102.176
		c40.043-0.635,74.409-23.871,91.201-57.351c-0.549,0.013-1.058,0.066-1.62,0.066C516.744,375.538,510.699,373.447,506.909,369.238z
		"/>
	<path class="st2" d="M537.663,327.353c0.174,10.946-1.38,21.513-4.361,31.468c-0.774,0.062-1.54,0.117-2.259,0.117
		c-2.719,0-4.906-0.699-6.556-2.116c-1.651-1.395-2.488-3.581-2.488-6.532v-36.686h14.51
		C537.176,318.101,537.588,322.683,537.663,327.353z M474.978,318.974c-2.442-3.766-6.464-5.648-12.044-5.648
		c-5.534,0-9.531,1.882-11.973,5.626c-2.464,3.742-3.674,9.393-3.674,16.971c0,7.533,1.232,13.229,3.696,17.088
		c2.488,3.859,6.51,5.789,12.09,5.789c5.534,0,9.509-1.906,11.949-5.743c2.418-3.837,3.627-9.556,3.627-17.134
		C478.65,328.391,477.442,322.74,474.978,318.974z M377.948,289.749c0,1.673,0.029,5.639-0.465,11.856l-0.487,6.138h1.093
		c4.626-7.44,11.973-11.16,22.062-11.16c8.928,0,15.715,2.396,20.343,7.206c4.441,4.619,6.737,11.189,6.918,19.662
		c1.499-6.625,4.295-12.138,8.416-16.524c6.51-6.904,15.623-10.347,27.386-10.347c7.301,0,13.741,1.582,19.343,4.767
		c3.392,1.937,6.296,4.388,8.729,7.341v-3.901l11.438-6.951l5.999-16.066h13.276v16.204h10.937
		c-13.379-42.791-53.636-73.547-100.746-72.8c-19.988,0.317-38.555,6.281-54.242,16.321V289.749z"/>
	<path id="slogan" d="M558.05,281.384h3.008v2.942c0,1.488-0.628,2.116-2.116,2.116h-9.981c-1.488,0-2.116-0.628-2.116-2.116v-17.65
		c0-0.496-0.264-0.727-0.727-0.727h-1.421v-2.843h3.339c1.488,0,2.116,0.628,2.116,2.116v17.65c0,0.463,0.264,0.727,0.727,0.727
		h6.444c0.463,0,0.727-0.264,0.727-0.727C558.05,282.871,558.05,281.384,558.05,281.384z M581.648,282.871
		c0,0.463-0.264,0.727-0.727,0.727h-6.81c-0.463,0-0.727-0.264-0.727-0.727v-6.777h8.163v-2.843h-8.163v-7.303h6.642
		c0.463,0,0.727,0.231,0.727,0.727v1.488h3.008v-2.942c0-1.488-0.628-2.116-2.116-2.116H567.93v2.843h2.149v18.377
		c0,1.488,0.628,2.116,2.116,2.116h10.378c1.488,0,2.116-0.628,2.116-2.116v-2.942h-3.041v1.488H581.648z M610.072,263.106h-16.063
		c-1.488,0-1.983,0.496-1.983,1.983v3.074h2.942v-1.488c0-0.496,0.264-0.727,0.727-0.727h4.694v20.493h3.306v-20.493h4.694
		c0.463,0,0.727,0.231,0.727,0.727v1.488h2.942v-3.074C612.054,263.602,611.56,263.106,610.072,263.106z M631.059,265.949h2.281
		v17.65h-2.281v2.843h7.7v-2.843h-2.281v-17.65h2.281v-2.843h-7.7V265.949z M665.004,263.106h-16.063
		c-1.488,0-1.983,0.496-1.983,1.983v3.074h2.942v-1.488c0-0.496,0.264-0.727,0.727-0.727h4.694v20.493h3.306v-20.493h4.694
		c0.463,0,0.727,0.231,0.727,0.727v1.488h2.942v-3.074C666.987,263.602,666.492,263.106,665.004,263.106z M703.445,270.409
		c0,4.43-3.041,7.405-7.306,7.405h-4.824v8.626h-3.306v-20.493h-2.149v-2.843h10.278
		C700.403,263.106,703.445,265.982,703.445,270.409z M700.04,270.409c0-2.81-1.686-4.463-4.397-4.463h-4.33v9.025h4.297
		C698.354,274.971,700.04,273.219,700.04,270.409z M725.092,282.871c0,0.463-0.264,0.727-0.727,0.727h-6.444
		c-0.463,0-0.727-0.264-0.727-0.727v-17.65c0-1.488-0.628-2.116-2.116-2.116h-3.339v2.843h1.421c0.463,0,0.727,0.231,0.727,0.727
		v17.65c0,1.488,0.628,2.116,2.116,2.116h9.981c1.488,0,2.116-0.628,2.116-2.116v-2.942h-3.008V282.871L725.092,282.871z
		 M756.194,283.599h0.496v2.843h-1.851c-1.653,0-2.182-0.397-2.711-1.917l-1.752-4.793h-8.593l-1.752,4.793
		c-0.562,1.521-1.091,1.917-2.744,1.917h-1.818v-2.843h0.463c0.595,0,0.893-0.132,1.091-0.727l7.306-19.766h3.471l7.306,19.766
		C755.302,283.466,755.633,283.599,756.194,283.599z M749.55,276.954l-2.545-7.107c-0.43-1.223-0.926-3.273-0.926-3.273h-0.066
		c0,0-0.463,2.049-0.893,3.273l-2.545,7.107H749.55z M775.696,264.891l-3.504,5.884c-0.793,1.289-1.421,2.611-1.421,2.611h-0.066
		c0,0-0.661-1.322-1.421-2.611l-3.537-5.884c-0.926-1.554-1.554-1.785-3.14-1.785h-1.521v2.843h0.661
		c0.694,0,0.992,0.132,1.421,0.826l5.917,9.485v10.179h3.306V276.26l5.884-9.485c0.43-0.694,0.76-0.826,1.455-0.826h0.628v-2.843
		h-1.521C777.282,263.106,776.621,263.337,775.696,264.891z M793.641,280.029l0.198-16.923h-3.306l0.231,16.923H793.641z
		 M790.567,286.439h3.273v-3.207h-3.273V286.439z"/>
	<path id="sport" d="M725.945,301.897c-5.602-3.184-12.044-4.765-19.343-4.765c-11.764,0-20.876,3.44-27.386,10.345
		c-4.341,4.621-7.189,10.51-8.621,17.615c-1.128-7.043-3.359-12.908-6.755-17.544c-5.093-6.951-12.136-10.415-21.11-10.415
		c-9.556,0-16.738,3.766-21.621,11.299h-0.952l-2.929-9.904h-16.879v125.508c12.313-0.857,19.788-5.688,20.762-15.867v-30.805
		c0-1.001-0.348-4.674-1.069-11.021h1.069c5.093,6.486,12.112,9.741,21.064,9.741c5.952,0,11.136-1.558,15.53-4.696
		c4.416-3.138,7.81-7.696,10.182-13.694c1.223-3.063,2.122-6.415,2.717-10.036c0.747,3.526,1.873,6.803,3.383,9.824
		c2.999,5.999,7.277,10.602,12.857,13.787c5.602,3.209,12.044,4.813,19.343,4.813c11.671,0,20.784-3.486,27.318-10.486
		c6.532-6.997,9.787-16.694,9.787-29.083c0-7.998-1.488-14.973-4.487-20.923C735.803,309.639,731.525,305.083,725.945,301.897z
		 M636.313,359.206c-5.278,0-9.113-1.767-11.554-5.3c-2.418-3.557-3.65-9.393-3.65-17.577v-2.232
		c0.093-7.277,1.327-12.484,3.698-15.647c2.349-3.138,6.116-4.721,11.228-4.721c4.93,0,8.509,1.884,10.812,5.626
		c2.301,3.742,3.44,9.346,3.44,16.833C650.285,351.533,645.635,359.206,636.313,359.206z M718.413,353.602
		c-2.442,3.837-6.415,5.743-11.949,5.743c-5.58,0-9.602-1.931-12.09-5.789c-2.464-3.859-3.698-9.556-3.698-17.088
		c0-7.579,1.21-13.229,3.674-16.971c2.442-3.742,6.439-5.626,11.973-5.626c5.58,0,9.602,1.882,12.044,5.648
		c2.464,3.766,3.674,9.417,3.674,16.949C722.04,344.046,720.83,349.765,718.413,353.602z M596.665,342.327
		c1.302,2.744,1.953,5.999,1.953,9.765c0,7.812-2.697,13.763-8.136,17.855c-5.417,4.092-13.531,6.138-24.341,6.138
		c-5.534,0-10.252-0.372-14.159-1.115c-3.905-0.767-7.555-1.86-10.973-3.326c0-21.24-3.328-16.773,13.042-12.601
		c4.835,1.232,9.091,1.836,12.764,1.836c7.557,0,11.323-2.186,11.323-6.556c0-1.626-0.511-2.953-1.512-3.976
		c-1-1.023-2.719-2.186-5.161-3.489c-2.464-1.278-5.719-2.79-9.811-4.533c-5.858-2.442-10.159-4.721-12.903-6.812
		c-2.744-2.094-4.743-4.487-5.999-7.184c-1.256-2.719-1.86-6.045-1.86-9.996c0-6.741,2.605-11.973,7.859-15.669
		c5.232-3.696,12.672-5.534,22.296-5.534c9.183,0,18.086,1.999,26.761,5.974l-6.254,14.948c-3.813-1.626-7.369-2.975-10.695-4.022
		c-3.301-1.047-6.695-1.558-10.135-1.558c-6.138,0-9.207,1.651-9.207,4.974c0,1.86,0.998,3.486,2.975,4.835
		c1.977,1.371,6.301,3.394,12.971,6.067c5.928,2.418,10.3,4.674,13.066,6.766C593.293,337.212,595.338,339.608,596.665,342.327z
		 M840,357.091v15.506c-5.183,2.325-11.53,3.486-19.063,3.486c-8.324,0-14.369-2.091-18.157-6.301
		c-3.788-4.207-5.697-10.508-5.697-18.902v-36.73l-2.874-0.342l-0.029,0.342l0,0l-0.245,3.07c-1.697-0.441-3.72-0.674-6.138-0.674
		c-6.627,0-11.788,1.697-15.484,5.115c-3.696,3.394-5.556,8.161-5.556,14.298v38.732h-20.762v-76.163h15.739l3.046,12.833h1.023
		c2.371-4.253,5.556-7.696,9.578-10.323c3.998-2.603,8.37-3.905,13.088-3.905c2.812,0,5.161,0.209,7.021,0.604l-0.214,2.664l0,0l0,0
		l3.315-2.014l5.999-16.066h13.276v16.204h21.319v15.623h-21.319v36.686c0,2.953,0.837,5.139,2.488,6.534
		c1.651,1.419,3.835,2.116,6.556,2.116C830.561,359.484,834.907,358.693,840,357.091z"/>
</g>
</svg>
