<svg xmlns="http://www.w3.org/2000/svg" viewBox="0 0 42 42"><circle cx="21" cy="21" r="21" fill="#222"/><path d="M16.058 25.942A6.749 6.749 0 0 0 21 28.014a6.749 6.749 0 0 0 4.942-2.072A6.749 6.749 0 0 0 28.014 21a6.748 6.748 0 0 0-2.071-4.942A6.747 6.747 0 0 0 21 13.986a6.748 6.748 0 0 0-4.942 2.071A6.747 6.747 0 0 0 13.986 21a6.749 6.749 0 0 0 2.072 4.942zm-1.23-11.115A8.414 8.414 0 0 1 21 12.264a8.414 8.414 0 0 1 6.173 2.563A8.414 8.414 0 0 1 29.736 21a8.414 8.414 0 0 1-2.563 6.173A8.414 8.414 0 0 1 21 29.736a8.414 8.414 0 0 1-6.173-2.563A8.414 8.414 0 0 1 12.264 21a8.411 8.411 0 0 1 2.564-6.173zm4.409 10.11v-7.875L24.486 21l-5.249 3.937z" fill="#fff"/></svg>