<svg xmlns="http://www.w3.org/2000/svg" viewBox="0 0 42 42"><circle cx="21" cy="21" r="21" fill="#222"/><path d="M17.9 24.6a4.223 4.223 0 0 0 3.1 1.289 4.223 4.223 0 0 0 3.1-1.289 4.224 4.224 0 0 0 1.292-3.1 4.224 4.224 0 0 0-1.292-3.1 4.223 4.223 0 0 0-3.1-1.289 4.223 4.223 0 0 0-3.1 1.289 4.224 4.224 0 0 0-1.292 3.1 4.224 4.224 0 0 0 1.292 3.1zm.472-11.833h5.25l1.6 1.723h2.792c.461-.002.901.192 1.21.533.329.325.514.768.513 1.23v10.5c.001.462-.184.905-.513 1.23a1.624 1.624 0 0 1-1.21.533H13.986a1.624 1.624 0 0 1-1.21-.533 1.724 1.724 0 0 1-.513-1.23v-10.5a1.724 1.724 0 0 1 .513-1.23 1.624 1.624 0 0 1 1.21-.533h2.789l1.597-1.723zm.656 10.705a2.689 2.689 0 0 1-.82-1.969 2.689 2.689 0 0 1 .82-1.969A2.687 2.687 0 0 1 21 18.711a2.689 2.689 0 0 1 1.969.82c.533.515.83 1.228.82 1.969a2.689 2.689 0 0 1-.82 1.969 2.689 2.689 0 0 1-1.969.82 2.689 2.689 0 0 1-1.969-.82l-.003.003z" fill="#fff"/></svg>