<svg xmlns="http://www.w3.org/2000/svg" viewBox="0 0 54.005 54.008"><path d="M10.778 37.78c3.971 5.831 9.38 8.746 16.225 8.746s12.254-2.915 16.225-8.746c-.085-2.366-1.985-4.352-5.7-5.958a26.6 26.6 0 0 0-10.521-2.408 27.194 27.194 0 0 0-10.521 2.345c-3.721 1.563-5.624 3.57-5.708 6.021zm21.929-27.254a7.799 7.799 0 0 0-5.7-2.408 7.799 7.799 0 0 0-5.7 2.408 7.799 7.799 0 0 0-2.408 5.7 7.799 7.799 0 0 0 2.408 5.7 7.799 7.799 0 0 0 5.7 2.408 7.799 7.799 0 0 0 5.7-2.408 7.799 7.799 0 0 0 2.408-5.7 7.803 7.803 0 0 0-2.408-5.7zm-24.782-2.6A26 26 0 0 1 27.002.003a26 26 0 0 1 19.077 7.923 26.004 26.004 0 0 1 7.923 19.077 26.001 26.001 0 0 1-7.921 19.08 26.003 26.003 0 0 1-19.078 7.922 26 26 0 0 1-19.077-7.922A26.001 26.001 0 0 1 .003 27.005 26 26 0 0 1 7.926 7.928l-.001-.002z" fill="#d6d6d6"/></svg>